<svg preserveAspectRatio="xMidYMid meet" data-bbox="1.73 2.26 155.27 155.5" viewBox="1.73 2.26 155.27 155.5" xmlns="http://www.w3.org/2000/svg" data-type="color" role="presentation" aria-hidden="true" aria-label="">
    <g>
        <path d="M56.95 94.73q14.23-.16 26.77.09c7.96.15 15.91 2.58 21.91 8.17q6.03 5.61 8.46 11.04 8.38 18.74-3.81 34.37-3.78 4.84-10.02 9.04-.46.31-1.02.31l-96.98-.01q-.49 0-.49-.48l.01-17.29a.39.38-90 0 1 .38-.39q40.54.02 79.18.01c7.31-.01 13.67-5.16 12.31-12.85-1.23-6.92-6.62-9.25-13.07-9.24q-35.67.05-69.36.01a.27.26-70.5 0 1-.2-.43q34-43.1 68.69-87.14 1.28-1.64.9-3.67c-.65-3.45-2.57-4.25-5.67-4.26q-36.4-.09-72.5.11-.66 0-.66-.65V3q0-.72.72-.72l118.24-.02q.55 0 .77.51c2.46 5.82-1.04 12.12-4.83 16.43q-5.52 6.29-10.77 12.69-22.4 27.27-49.26 62.25-.47.6.3.59Z" fill="#10377a" data-color="1"></path>
        <path d="M157 2.34v155.42h-24.87a.45.44-73.4 0 1-.37-.69c18.24-27.87 10.51-56.25-15.67-74.08q-6.56-4.46-12.63-7.23-.66-.3-.22-.88 18.47-24.53 37.72-50.04 2.77-3.66 3.78-7.02 2.36-7.83 1.15-14.79-.1-.56.46-.56L157 2.34Z" fill="#10377a" data-color="1"></path>
        <path d="m1.73 89.45.08-44.97a.34.34 0 0 1 .34-.34l34.76-.04a.34.34 0 0 1 .27.55L2.34 89.66a.34.34 0 0 1-.61-.21Z" fill="#10377a" data-color="1"></path>
    </g>
</svg>